<svg xmlns="http://www.w3.org/2000/svg" xmlns:xlink="http://www.w3.org/1999/xlink" width="500" zoomAndPan="magnify" viewBox="0 0 375 374.999991" height="500" preserveAspectRatio="xMidYMid meet" version="1.2"><defs><clipPath id="3c441423d9"><path d="M 11 113 L 130.605469 113 L 130.605469 261 L 11 261 Z M 11 113 "/></clipPath></defs><g id="7a50e00860"><rect x="0" width="375" y="0" height="374.999991" style="fill:#ffffff;fill-opacity:1;stroke:none;"/><rect x="0" width="375" y="0" height="374.999991" style="fill:#c1ff72;fill-opacity:1;stroke:none;"/><g clip-rule="nonzero" clip-path="url(#3c441423d9)"><path style=" stroke:none;fill-rule:nonzero;fill:#b43737;fill-opacity:1;" d="M 11.3125 186.597656 C 11.546875 181.855469 14.703125 177.761719 18.597656 175.285156 C 49.265625 155.675781 79.929688 136.046875 110.609375 116.445312 C 114.152344 114.113281 118.660156 112.695312 122.84375 114.007812 C 127.960938 115.46875 130.625 121.023438 130.421875 126.050781 C 130.472656 166.804688 130.457031 207.550781 130.496094 248.308594 C 130.554688 252.746094 128.691406 257.660156 124.496094 259.703125 C 120.144531 261.953125 114.890625 260.613281 110.96875 258.089844 C 80.273438 238.542969 49.585938 218.972656 18.898438 199.421875 C 14.507812 196.753906 10.929688 191.9375 11.3125 186.597656 Z M 11.3125 186.597656 "/></g><g style="fill:#030009;fill-opacity:1;"><g transform="translate(142.715225, 208.158399)"><path style="stroke:none" d="M 35.21875 0 L 24.734375 0 L 12.703125 -17.546875 L 12.703125 0 L 4.21875 0 L 4.21875 -45.8125 L 17.421875 -45.8125 C 20.566406 -45.8125 23.066406 -45.5625 24.921875 -45.0625 C 26.785156 -44.570312 28.460938 -43.6875 29.953125 -42.40625 C 33.171875 -39.675781 34.78125 -35.914062 34.78125 -31.125 C 34.78125 -27.570312 33.816406 -24.570312 31.890625 -22.125 C 29.972656 -19.6875 26.945312 -17.953125 22.8125 -16.921875 Z M 26.21875 -30.875 C 26.21875 -32.238281 25.96875 -33.4375 25.46875 -34.46875 C 24.976562 -35.5 24.03125 -36.296875 22.625 -36.859375 C 21.21875 -37.421875 19.171875 -37.703125 16.484375 -37.703125 L 12.703125 -37.703125 L 12.703125 -23.9375 L 16.859375 -23.9375 C 20.171875 -23.9375 22.554688 -24.492188 24.015625 -25.609375 C 25.484375 -26.722656 26.21875 -28.476562 26.21875 -30.875 Z M 26.21875 -30.875 "/></g></g><g style="fill:#030009;fill-opacity:1;"><g transform="translate(178.670648, 208.158399)"><path style="stroke:none" d="M 37.703125 -16.671875 C 37.703125 -16.054688 37.679688 -15.519531 37.640625 -15.0625 C 37.597656 -14.613281 37.515625 -14.097656 37.390625 -13.515625 L 10.78125 -13.515625 C 11.28125 -11.453125 12.375 -9.8125 14.0625 -8.59375 C 15.757812 -7.375 17.832031 -6.765625 20.28125 -6.765625 C 21.96875 -6.765625 23.390625 -7.019531 24.546875 -7.53125 C 25.703125 -8.050781 26.800781 -8.929688 27.84375 -10.171875 L 36.828125 -10.171875 C 36.085938 -7.816406 34.859375 -5.820312 33.140625 -4.1875 C 31.421875 -2.550781 29.457031 -1.304688 27.25 -0.453125 C 25.039062 0.390625 22.773438 0.8125 20.453125 0.8125 C 17.847656 0.8125 15.421875 0.359375 13.171875 -0.546875 C 10.921875 -1.460938 8.945312 -2.734375 7.25 -4.359375 C 5.5625 -5.992188 4.238281 -7.882812 3.28125 -10.03125 C 2.332031 -12.1875 1.859375 -14.523438 1.859375 -17.046875 C 1.859375 -19.566406 2.320312 -21.921875 3.25 -24.109375 C 4.1875 -26.304688 5.476562 -28.226562 7.125 -29.875 C 8.78125 -31.53125 10.703125 -32.820312 12.890625 -33.75 C 15.085938 -34.6875 17.445312 -35.15625 19.96875 -35.15625 C 23.394531 -35.15625 26.441406 -34.359375 29.109375 -32.765625 C 31.773438 -31.171875 33.875 -28.976562 35.40625 -26.1875 C 36.9375 -23.40625 37.703125 -20.234375 37.703125 -16.671875 Z M 29.578125 -20.765625 C 29.035156 -22.960938 27.957031 -24.648438 26.34375 -25.828125 C 24.738281 -27.003906 22.65625 -27.59375 20.09375 -27.59375 C 17.65625 -27.59375 15.617188 -27.003906 13.984375 -25.828125 C 12.347656 -24.648438 11.203125 -22.960938 10.546875 -20.765625 Z M 29.578125 -20.765625 "/></g></g><g style="fill:#030009;fill-opacity:1;"><g transform="translate(218.345595, 208.158399)"><path style="stroke:none" d="M 33.859375 0 L 25.609375 0 L 25.609375 -16.796875 C 25.609375 -19.859375 25.335938 -22.164062 24.796875 -23.71875 C 24.265625 -25.269531 23.507812 -26.300781 22.53125 -26.8125 C 21.5625 -27.332031 20.394531 -27.59375 19.03125 -27.59375 C 16.300781 -27.59375 14.273438 -26.535156 12.953125 -24.421875 C 12.421875 -23.597656 12.0625 -22.597656 11.875 -21.421875 C 11.6875 -20.242188 11.59375 -18.5 11.59375 -16.1875 L 11.59375 0 L 3.34375 0 L 3.34375 -34.34375 L 10.96875 -34.34375 L 10.96875 -31.0625 C 12.5 -32.507812 14.007812 -33.550781 15.5 -34.1875 C 16.988281 -34.832031 18.703125 -35.15625 20.640625 -35.15625 C 25.523438 -35.15625 29.101562 -33.5 31.375 -30.1875 C 32.320312 -28.863281 32.972656 -27.332031 33.328125 -25.59375 C 33.679688 -23.863281 33.859375 -21.46875 33.859375 -18.40625 Z M 33.859375 0 "/></g></g><g style="fill:#030009;fill-opacity:1;"><g transform="translate(255.540859, 208.158399)"><path style="stroke:none" d="M 17.796875 -26.84375 L 12.828125 -26.84375 L 12.828125 0 L 4.59375 0 L 4.59375 -26.84375 L 0.5625 -26.84375 L 0.5625 -34.34375 L 4.59375 -34.34375 L 4.59375 -45.8125 L 12.828125 -45.8125 L 12.828125 -34.34375 L 17.796875 -34.34375 Z M 17.796875 -26.84375 "/></g></g><g style="fill:#030009;fill-opacity:1;"><g transform="translate(274.138491, 208.158399)"><path style="stroke:none" d="M 38.125 0 L 30.5625 0 L 30.5625 -4.46875 C 28.914062 -2.601562 27.210938 -1.253906 25.453125 -0.421875 C 23.691406 0.398438 21.59375 0.8125 19.15625 0.8125 C 15.8125 0.8125 12.835938 0.046875 10.234375 -1.484375 C 7.628906 -3.015625 5.582031 -5.132812 4.09375 -7.84375 C 2.601562 -10.550781 1.859375 -13.617188 1.859375 -17.046875 C 1.859375 -20.554688 2.613281 -23.664062 4.125 -26.375 C 5.632812 -29.082031 7.703125 -31.222656 10.328125 -32.796875 C 12.953125 -34.367188 15.957031 -35.15625 19.34375 -35.15625 C 21.820312 -35.15625 23.957031 -34.726562 25.75 -33.875 C 27.550781 -33.03125 29.15625 -31.660156 30.5625 -29.765625 L 30.5625 -34.34375 L 38.125 -34.34375 Z M 30.3125 -16.921875 C 30.3125 -19.035156 29.878906 -20.882812 29.015625 -22.46875 C 28.148438 -24.0625 26.960938 -25.3125 25.453125 -26.21875 C 23.941406 -27.132812 22.195312 -27.59375 20.21875 -27.59375 C 18.269531 -27.59375 16.53125 -27.132812 15 -26.21875 C 13.46875 -25.3125 12.28125 -24.050781 11.4375 -22.4375 C 10.59375 -20.832031 10.171875 -18.972656 10.171875 -16.859375 C 10.171875 -13.847656 11.109375 -11.410156 12.984375 -9.546875 C 14.867188 -7.691406 17.320312 -6.765625 20.34375 -6.765625 C 22.445312 -6.765625 24.242188 -7.21875 25.734375 -8.125 C 27.222656 -9.03125 28.359375 -10.25 29.140625 -11.78125 C 29.921875 -13.3125 30.3125 -15.023438 30.3125 -16.921875 Z M 30.3125 -16.921875 "/></g></g><g style="fill:#030009;fill-opacity:1;"><g transform="translate(315.053279, 208.158399)"><path style="stroke:none" d="M 11.59375 0 L 3.34375 0 L 3.34375 -45.8125 L 11.59375 -45.8125 Z M 11.59375 0 "/></g></g><g style="fill:#030009;fill-opacity:1;"><g transform="translate(1.395668, 208.158399)"><path style="stroke:none" d="M 47.125 -12.765625 C 45.925781 -10.003906 44.257812 -7.597656 42.125 -5.546875 C 40 -3.503906 37.5625 -1.929688 34.8125 -0.828125 C 32.0625 0.265625 29.117188 0.8125 25.984375 0.8125 C 22.628906 0.8125 19.492188 0.191406 16.578125 -1.046875 C 13.671875 -2.285156 11.109375 -4 8.890625 -6.1875 C 6.679688 -8.382812 4.957031 -10.921875 3.71875 -13.796875 C 2.476562 -16.671875 1.859375 -19.757812 1.859375 -23.0625 C 1.859375 -26.289062 2.46875 -29.328125 3.6875 -32.171875 C 4.90625 -35.023438 6.597656 -37.535156 8.765625 -39.703125 C 10.941406 -41.878906 13.453125 -43.578125 16.296875 -44.796875 C 19.148438 -46.015625 22.191406 -46.625 25.421875 -46.625 C 30.128906 -46.625 34.414062 -45.40625 38.28125 -42.96875 C 42.144531 -40.53125 45.09375 -37.097656 47.125 -32.671875 L 37.640625 -32.671875 C 36.109375 -34.703125 34.390625 -36.171875 32.484375 -37.078125 C 30.585938 -37.984375 28.296875 -38.4375 25.609375 -38.4375 C 22.710938 -38.4375 20.117188 -37.742188 17.828125 -36.359375 C 15.535156 -34.972656 13.726562 -33.125 12.40625 -30.8125 C 11.082031 -28.5 10.421875 -25.894531 10.421875 -23 C 10.421875 -20.144531 11.109375 -17.539062 12.484375 -15.1875 C 13.867188 -12.832031 15.726562 -10.941406 18.0625 -9.515625 C 20.40625 -8.085938 22.984375 -7.375 25.796875 -7.375 C 27.984375 -7.375 29.953125 -7.785156 31.703125 -8.609375 C 33.460938 -9.441406 35.273438 -10.828125 37.140625 -12.765625 Z M 47.125 -12.765625 "/></g></g><g style="fill:#030009;fill-opacity:1;"><g transform="translate(48.819581, 208.158399)"><path style="stroke:none" d="M 45.453125 0 L 36.078125 0 L 31.1875 -11.84375 L 14.875 -11.84375 L 9.796875 0 L 0.4375 0 L 19.53125 -45.8125 L 26.21875 -45.8125 Z M 27.78125 -19.96875 L 22.875 -33.859375 L 17.984375 -19.96875 Z M 27.78125 -19.96875 "/></g></g><g style="fill:#030009;fill-opacity:1;"><g transform="translate(94.693736, 208.158399)"><path style="stroke:none" d="M 35.21875 0 L 24.734375 0 L 12.703125 -17.546875 L 12.703125 0 L 4.21875 0 L 4.21875 -45.8125 L 17.421875 -45.8125 C 20.566406 -45.8125 23.066406 -45.5625 24.921875 -45.0625 C 26.785156 -44.570312 28.460938 -43.6875 29.953125 -42.40625 C 33.171875 -39.675781 34.78125 -35.914062 34.78125 -31.125 C 34.78125 -27.570312 33.816406 -24.570312 31.890625 -22.125 C 29.972656 -19.6875 26.945312 -17.953125 22.8125 -16.921875 Z M 26.21875 -30.875 C 26.21875 -32.238281 25.96875 -33.4375 25.46875 -34.46875 C 24.976562 -35.5 24.03125 -36.296875 22.625 -36.859375 C 21.21875 -37.421875 19.171875 -37.703125 16.484375 -37.703125 L 12.703125 -37.703125 L 12.703125 -23.9375 L 16.859375 -23.9375 C 20.171875 -23.9375 22.554688 -24.492188 24.015625 -25.609375 C 25.484375 -26.722656 26.21875 -28.476562 26.21875 -30.875 Z M 26.21875 -30.875 "/></g></g></g></svg>